<?xml version="1.0" encoding="UTF-8"?>
<svg id="Capa_2" data-name="Capa 2" xmlns="http://www.w3.org/2000/svg" viewBox="0 0 44.4 40.95">
  <defs>
    <style>
      .cls-1 {
        fill: #d93a26;
      }
    </style>
  </defs>
  <g id="Capa_1-2" data-name="Capa 1">
    <g>
      <path class="cls-1" d="M29.86,16.9h4.52c.15,0,.3.04.43.12,0,.02,0,.04,0,.07v22.38c0,.97.94,1.67,1.87,1.38h0s.03-.01.05-.02c2.11-.83,4.86-1.94,6.86-2.84.37-.15.8-.34.82-1.01v-19.9s0-.08,0-.11v-.07h0V3.27c0-.8-.65-1.46-1.46-1.46h-3.38c-.61,0-1.16.37-1.36.95-1.39,3.84-4.01,6.71-7.97,7.42-.18.03-.36.06-.55.08-.73.09-1.27.71-1.27,1.44v3.74c0,.8.65,1.46,1.46,1.46Z"/>
      <path class="cls-1" d="M35.82.32c-.19-.2-.46-.32-.75-.32H1.89C.85,0,0,.77,0,1.71v5.02c0,1.21.22,1.75,1.74,1.75h11.08c.29,0,.53.24.53.53v4.21s0,.03,0,.05v23.62c0,.52.36.94.84,1.15.99.42,4.36,2.08,5.49,2.68,1.44.76,3.15-.46,3.15-2.09V9.81c0-.07,0-.21,0-.21-.08-.38.05-.82.42-.97.09-.03.19-.05.3-.05h3.63s.02,0,.02,0c7.9-.77,8.71-6.87,8.78-7.57,0-.04,0-.08,0-.11v-.17c0-.16-.05-.31-.16-.42Z"/>
    </g>
  </g>
</svg>