<?xml version="1.0" encoding="UTF-8"?>
<svg id="Capa_2" data-name="Capa 2" xmlns="http://www.w3.org/2000/svg" viewBox="0 0 141.92 35.62">
  <defs>
    <style>
      .cls-1 {
        fill: #282828;
      }

      .cls-2 {
        fill: #d93a26;
      }
    </style>
  </defs>
  <g id="Capa_1-2" data-name="Capa 1">
    <g>
      <g>
        <path class="cls-1" d="M51.97,33.37c-1.83,0-3.44-.39-4.82-1.16-1.38-.77-2.46-1.85-3.23-3.24-.77-1.39-1.15-2.99-1.15-4.82,0-1.94.38-3.62,1.14-5.04s1.81-2.52,3.17-3.3c1.35-.78,2.93-1.17,4.73-1.17s3.48.42,4.8,1.26c1.32.84,2.31,2.03,2.96,3.57.65,1.54.91,3.38.78,5.5h-3.57v-1.25c-.02-2.06-.43-3.58-1.22-4.57-.79-.99-1.99-1.48-3.61-1.48-1.79,0-3.13.54-4.03,1.63-.9,1.08-1.35,2.65-1.35,4.7s.45,3.46,1.35,4.53,2.2,1.6,3.89,1.6c1.12,0,2.08-.24,2.89-.73.81-.49,1.45-1.19,1.9-2.09l3.5,1.07c-.72,1.59-1.8,2.82-3.26,3.69-1.46.87-3.08,1.31-4.87,1.31ZM45.39,24.98v-2.68h13.16v2.68h-13.16Z"/>
        <path class="cls-1" d="M62.6,32.88V15.14h3.19v5.13h.43v12.62h-3.62ZM75.56,32.88v-8.72c0-.69-.06-1.4-.18-2.13-.12-.73-.35-1.4-.68-2.03-.34-.62-.81-1.13-1.42-1.51-.61-.38-1.4-.57-2.38-.57-.64,0-1.24.1-1.81.3-.57.2-1.07.53-1.49.98-.43.45-.76,1.04-1.01,1.77-.24.73-.37,1.63-.37,2.68l-2.22-.8c0-1.61.31-3.03.94-4.26s1.53-2.19,2.7-2.88c1.17-.69,2.59-1.03,4.25-1.03,1.27,0,2.34.2,3.21.59.86.39,1.57.91,2.11,1.55.54.64.95,1.34,1.24,2.09.28.76.48,1.49.58,2.22.1.72.15,1.36.15,1.91v9.86h-3.62Z"/>
        <path class="cls-1" d="M87.58,32.88l-6.69-17.74h3.6l4.9,13.44,4.9-13.44h3.6l-6.69,17.74h-3.62Z"/>
        <path class="cls-1" d="M100.28,32.88V15.14h3.57v17.74h-3.57ZM103.52,12.51h-2.8l2.44-5.75h2.8l-2.44,5.75Z"/>
        <path class="cls-1" d="M115.95,33.37c-1.84,0-3.44-.4-4.8-1.2-1.35-.8-2.4-1.9-3.13-3.31-.73-1.41-1.1-3.03-1.1-4.87s.38-3.48,1.13-4.89c.75-1.41,1.8-2.5,3.16-3.29,1.35-.78,2.94-1.17,4.75-1.17s3.44.4,4.8,1.2c1.35.8,2.4,1.9,3.14,3.3.74,1.4,1.11,3.02,1.11,4.85s-.37,3.48-1.12,4.89c-.75,1.41-1.8,2.51-3.15,3.3-1.35.79-2.95,1.19-4.78,1.19ZM115.95,30.14c1.76,0,3.08-.57,3.95-1.72.87-1.14,1.31-2.62,1.31-4.43s-.44-3.33-1.32-4.44c-.88-1.11-2.19-1.67-3.94-1.67-1.2,0-2.18.26-2.95.78-.77.52-1.35,1.24-1.72,2.15-.38.91-.56,1.97-.56,3.18,0,1.86.44,3.35,1.33,4.47.89,1.12,2.19,1.68,3.91,1.68Z"/>
        <path class="cls-1" d="M134.44,33.36c-2.24,0-4.07-.48-5.48-1.43-1.41-.95-2.28-2.29-2.6-4.02l3.65-.54c.23.92.75,1.65,1.58,2.18.83.53,1.85.8,3.08.8,1.12,0,1.99-.22,2.62-.66.63-.44.95-1.04.95-1.81,0-.45-.11-.81-.33-1.09-.22-.28-.69-.54-1.39-.8s-1.78-.56-3.23-.94c-1.58-.39-2.84-.82-3.76-1.27-.93-.45-1.59-.99-1.98-1.59-.39-.61-.59-1.34-.59-2.21,0-1.07.3-2.01.89-2.81.59-.8,1.43-1.42,2.5-1.86,1.08-.44,2.34-.66,3.78-.66s2.67.21,3.77.64c1.1.43,2,1.03,2.68,1.82s1.09,1.7,1.23,2.75l-3.65.64c-.13-.85-.54-1.53-1.25-2.02-.71-.49-1.62-.76-2.75-.8-1.08-.04-1.96.13-2.63.52-.67.39-1.01.92-1.01,1.6,0,.39.13.73.38,1,.26.27.75.54,1.49.79.74.25,1.83.55,3.28.9,1.55.38,2.78.81,3.69,1.27.91.47,1.56,1.02,1.95,1.66.39.64.59,1.42.59,2.32,0,1.75-.66,3.13-1.99,4.12-1.33,1-3.16,1.49-5.49,1.49Z"/>
      </g>
      <g>
        <path class="cls-2" d="M25.97,14.7h3.93c.13,0,.26.04.37.1,0,.02,0,.04,0,.06v19.47c0,.85.82,1.45,1.63,1.2h0s.03,0,.04-.01c1.83-.73,4.23-1.69,5.96-2.47.32-.13.7-.3.71-.88V14.86s0-.07,0-.1v-.06h0V2.84c0-.7-.57-1.27-1.27-1.27h-2.94c-.53,0-1.01.33-1.19.82-1.21,3.34-3.49,5.83-6.93,6.45-.16.03-.32.05-.48.07-.63.08-1.11.62-1.11,1.25v3.26c0,.7.57,1.27,1.27,1.27Z"/>
        <path class="cls-2" d="M31.16.28c-.17-.17-.4-.28-.65-.28H1.64C.74,0,0,.67,0,1.49v4.37c0,1.06.19,1.52,1.51,1.52h9.64c.26,0,.46.21.46.46v3.66s0,.03,0,.05v20.54c0,.46.31.82.73,1,.86.37,3.79,1.81,4.78,2.33,1.25.66,2.74-.4,2.74-1.81V8.54c0-.06,0-.18,0-.18-.07-.33.04-.71.37-.84.08-.03.16-.05.26-.05h3.16s.02,0,.02,0c6.87-.67,7.58-5.98,7.64-6.58,0-.03,0-.07,0-.1v-.15c0-.14-.05-.27-.14-.36Z"/>
      </g>
    </g>
  </g>
</svg>