<?xml version="1.0" encoding="UTF-8"?>
<svg id="Capa_2" data-name="Capa 2" xmlns="http://www.w3.org/2000/svg" viewBox="0 0 134.38 41.2">
  <defs>
    <style>
      .cls-1 {
        fill: #282828;
      }

      .cls-2 {
        fill: #d93a26;
      }
    </style>
  </defs>
  <g id="Capa_1-2" data-name="Capa 1">
    <g>
      <g>
        <path class="cls-2" d="M25.92,14.67h3.92c.13,0,.26.04.37.1,0,.02,0,.04,0,.06v19.43c0,.85.82,1.45,1.63,1.2h0s.03,0,.04-.01c1.83-.72,4.22-1.69,5.95-2.47.32-.13.69-.3.71-.87V14.83s0-.07,0-.1v-.06h0V2.84c0-.7-.57-1.26-1.26-1.26h-2.93c-.53,0-1,.33-1.18.82-1.2,3.33-3.48,5.82-6.92,6.44-.16.03-.32.05-.48.07-.63.08-1.1.62-1.1,1.25v3.25c0,.7.57,1.26,1.26,1.26Z"/>
        <path class="cls-2" d="M31.09.28c-.17-.17-.4-.28-.65-.28H1.64C.73,0,0,.66,0,1.49v4.36c0,1.05.19,1.52,1.51,1.52h9.62c.26,0,.46.21.46.46v3.66s0,.03,0,.05v20.5c0,.46.31.82.73,1,.86.37,3.78,1.81,4.77,2.32,1.25.66,2.74-.4,2.74-1.81V8.52c0-.06,0-.18,0-.18-.07-.33.04-.71.37-.84.08-.03.16-.05.26-.05h3.15s.02,0,.02,0c6.86-.67,7.56-5.97,7.62-6.57,0-.03,0-.07,0-.1v-.15c0-.13-.05-.27-.14-.36Z"/>
      </g>
      <g>
        <path class="cls-1" d="M42.69,40.71V15.14h3.17v12.74h.41v12.84h-3.58ZM51.34,33.33c-1.76,0-3.24-.41-4.43-1.24s-2.1-1.94-2.71-3.35c-.61-1.41-.92-3-.92-4.77s.3-3.36.91-4.77c.61-1.41,1.5-2.52,2.69-3.34s2.65-1.22,4.39-1.22,3.22.41,4.47,1.22c1.25.81,2.22,1.92,2.9,3.33.68,1.4,1.02,3,1.02,4.78s-.34,3.36-1.01,4.78c-.68,1.42-1.64,2.53-2.88,3.35-1.24.82-2.72,1.23-4.44,1.23ZM50.85,30.24c1.14,0,2.08-.28,2.82-.84.74-.56,1.3-1.31,1.67-2.25.37-.95.55-2,.55-3.17s-.18-2.21-.55-3.15c-.37-.94-.93-1.69-1.7-2.25-.76-.56-1.73-.84-2.91-.84-1.11,0-2.03.26-2.75.79-.72.52-1.26,1.26-1.6,2.2-.35.94-.52,2.02-.52,3.25s.17,2.31.51,3.25c.34.94.88,1.68,1.62,2.21.74.54,1.69.8,2.86.8Z"/>
        <path class="cls-1" d="M67.6,33.33c-1.36,0-2.5-.24-3.42-.73-.92-.49-1.62-1.13-2.09-1.93-.47-.8-.71-1.69-.71-2.65,0-.9.16-1.68.49-2.36.33-.68.82-1.25,1.47-1.73.65-.48,1.44-.86,2.39-1.16.82-.23,1.74-.43,2.78-.61,1.03-.17,2.12-.34,3.26-.49,1.14-.15,2.27-.31,3.4-.46l-1.29.69c.02-1.39-.28-2.42-.91-3.09-.63-.67-1.71-1.01-3.25-1.01-.97,0-1.85.22-2.66.65-.81.43-1.37,1.14-1.69,2.14l-3.32-.98c.45-1.52,1.32-2.73,2.6-3.62,1.28-.9,2.98-1.34,5.1-1.34,1.65,0,3.08.27,4.3.81,1.22.54,2.12,1.4,2.68,2.57.29.58.48,1.19.55,1.84.07.65.1,1.34.1,2.08v10.9h-3.15v-4.05l.61.52c-.76,1.36-1.73,2.36-2.9,3.02-1.18.66-2.62.99-4.34.99ZM68.23,30.53c1.01,0,1.88-.17,2.61-.52.73-.34,1.31-.78,1.75-1.32.44-.54.73-1.09.87-1.67.19-.52.3-1.11.33-1.77.03-.66.04-1.18.04-1.57l1.16.41c-1.12.16-2.15.31-3.07.44-.92.13-1.75.26-2.5.39-.74.13-1.41.28-1.98.45-.49.16-.92.36-1.3.59-.38.23-.68.51-.9.84s-.33.73-.33,1.2.12.88.36,1.27.6.7,1.09.93,1.11.34,1.87.34Z"/>
        <path class="cls-1" d="M88.09,33.33c-1.72,0-3.19-.41-4.44-1.23-1.24-.82-2.2-1.94-2.88-3.35-.68-1.42-1.01-3.01-1.01-4.78s.34-3.37,1.02-4.78c.68-1.4,1.65-2.51,2.9-3.33,1.25-.81,2.75-1.22,4.47-1.22s3.2.41,4.39,1.22c1.19.81,2.08,1.93,2.69,3.34.61,1.41.91,3,.91,4.77s-.31,3.36-.92,4.77c-.61,1.41-1.52,2.53-2.71,3.35s-2.67,1.24-4.43,1.24ZM88.36,41.2c-.99,0-1.95-.15-2.87-.44s-1.77-.73-2.53-1.3c-.76-.57-1.39-1.28-1.89-2.12l3.29-1.61c.4.75.97,1.31,1.7,1.66.74.35,1.52.52,2.33.52,1.01,0,1.87-.17,2.59-.52.72-.34,1.26-.86,1.63-1.55.37-.69.55-1.54.54-2.56v-4.95h.43v-13.2h3.15v18.18c0,.47-.02.92-.05,1.34-.03.43-.1.85-.19,1.28-.26,1.19-.76,2.17-1.49,2.95-.73.78-1.66,1.36-2.79,1.74-1.13.38-2.41.57-3.84.57ZM88.59,30.24c1.17,0,2.12-.27,2.86-.8.74-.54,1.28-1.27,1.62-2.21.34-.94.51-2.02.51-3.25s-.17-2.31-.52-3.25c-.35-.94-.88-1.67-1.6-2.2-.72-.52-1.64-.79-2.75-.79-1.18,0-2.15.28-2.91.84-.76.56-1.33,1.31-1.7,2.25-.37.94-.55,1.99-.55,3.15s.18,2.23.55,3.17c.37.95.93,1.7,1.67,2.25.74.56,1.68.84,2.82.84Z"/>
        <path class="cls-1" d="M108.47,33.33c-1.84,0-3.44-.4-4.79-1.2-1.35-.8-2.39-1.9-3.13-3.3-.73-1.4-1.1-3.02-1.1-4.86s.37-3.47,1.12-4.88c.75-1.4,1.8-2.5,3.15-3.28,1.35-.78,2.93-1.17,4.74-1.17s3.44.4,4.79,1.2c1.35.8,2.4,1.9,3.14,3.3.74,1.4,1.11,3.01,1.11,4.84s-.37,3.47-1.12,4.88c-.74,1.4-1.79,2.5-3.14,3.3-1.35.79-2.94,1.19-4.77,1.19ZM108.47,30.11c1.76,0,3.08-.57,3.94-1.71.87-1.14,1.3-2.61,1.3-4.42s-.44-3.32-1.32-4.43c-.88-1.11-2.19-1.66-3.93-1.66-1.19,0-2.17.26-2.95.78-.77.52-1.35,1.24-1.72,2.15-.38.91-.56,1.97-.56,3.17,0,1.86.44,3.34,1.33,4.46.89,1.11,2.19,1.67,3.9,1.67Z"/>
        <path class="cls-1" d="M126.92,33.32c-2.24,0-4.06-.48-5.47-1.43-1.41-.95-2.27-2.29-2.59-4.02l3.65-.54c.23.92.75,1.64,1.58,2.17.82.53,1.85.8,3.08.8,1.11,0,1.98-.22,2.62-.66.63-.44.95-1.04.95-1.8,0-.45-.11-.81-.33-1.09-.22-.28-.68-.54-1.39-.79s-1.78-.56-3.22-.93c-1.58-.39-2.83-.82-3.76-1.27-.93-.45-1.58-.98-1.98-1.59-.39-.61-.59-1.34-.59-2.2,0-1.07.3-2.01.89-2.8.59-.8,1.42-1.42,2.5-1.85,1.07-.44,2.33-.66,3.77-.66s2.66.21,3.77.64c1.1.43,1.99,1.03,2.67,1.81s1.09,1.7,1.23,2.75l-3.65.64c-.13-.85-.54-1.52-1.24-2.02-.7-.49-1.62-.76-2.74-.8-1.08-.04-1.95.13-2.62.52-.67.39-1.01.92-1.01,1.6,0,.39.13.73.38,1,.26.27.75.54,1.49.79.74.25,1.83.55,3.27.9,1.54.38,2.77.81,3.68,1.27.91.46,1.56,1.02,1.95,1.66.39.64.59,1.41.59,2.32,0,1.75-.66,3.12-1.98,4.11-1.32.99-3.15,1.49-5.48,1.49Z"/>
      </g>
    </g>
  </g>
</svg>