<?xml version="1.0" encoding="UTF-8"?>
<svg id="Capa_2" data-name="Capa 2" xmlns="http://www.w3.org/2000/svg" viewBox="0 0 139.26 35.53">
  <defs>
    <style>
      .cls-1 {
        fill: #282828;
      }

      .cls-2 {
        fill: #d93a26;
      }
    </style>
  </defs>
  <g id="Capa_1-2" data-name="Capa 1">
    <g>
      <g>
        <path class="cls-2" d="M25.91,14.66h3.92c.13,0,.26.04.37.1,0,.02,0,.04,0,.06v19.42c0,.84.82,1.45,1.63,1.19h0s.03,0,.04-.01c1.83-.72,4.22-1.69,5.95-2.47.32-.13.69-.3.71-.87V14.82s0-.07,0-.1v-.06h0V2.83c0-.7-.57-1.26-1.26-1.26h-2.93c-.53,0-1,.33-1.18.82-1.2,3.33-3.48,5.82-6.92,6.43-.16.03-.32.05-.48.07-.63.08-1.1.61-1.1,1.25v3.25c0,.7.57,1.26,1.26,1.26Z"/>
        <path class="cls-2" d="M31.08.28c-.17-.17-.4-.28-.65-.28H1.64C.73,0,0,.66,0,1.48v4.36c0,1.05.19,1.52,1.51,1.52h9.62c.26,0,.46.21.46.46v3.66s0,.03,0,.05v20.49c0,.45.31.82.73,1,.86.37,3.78,1.8,4.76,2.32,1.25.66,2.73-.4,2.73-1.81V8.52c0-.06,0-.18,0-.18-.07-.33.04-.71.37-.84.08-.03.16-.05.26-.05h3.15s.02,0,.02,0c6.86-.67,7.56-5.97,7.62-6.56,0-.03,0-.07,0-.1v-.15c0-.13-.05-.27-.14-.36Z"/>
      </g>
      <g>
        <path class="cls-1" d="M42.7,17.9v-2.75h12.57v2.75h-12.57ZM55.26,32.84c-1.16.22-2.29.31-3.41.28-1.11-.03-2.11-.24-2.98-.62-.87-.38-1.53-.98-1.98-1.8-.4-.73-.61-1.48-.64-2.24-.03-.76-.04-1.62-.04-2.58v-15.65h3.58v15.49c0,.71,0,1.33.03,1.85s.13.97.35,1.33c.41.68,1.06,1.06,1.95,1.16.89.09,1.94.06,3.14-.11v2.9Z"/>
        <path class="cls-1" d="M58.45,12.24v-3.33h3.56v3.33h-3.56ZM58.45,32.84V15.14h3.56v17.7h-3.56Z"/>
        <path class="cls-1" d="M74.25,33.33c-1.83,0-3.43-.39-4.81-1.16-1.38-.77-2.45-1.85-3.22-3.23-.77-1.38-1.15-2.98-1.15-4.81,0-1.93.38-3.61,1.13-5.03s1.81-2.52,3.16-3.29c1.35-.78,2.92-1.16,4.72-1.16s3.47.42,4.79,1.25c1.32.84,2.3,2.02,2.95,3.56.65,1.54.91,3.37.78,5.49h-3.56v-1.25c-.02-2.05-.43-3.57-1.22-4.56-.79-.98-1.99-1.47-3.6-1.47-1.78,0-3.12.54-4.02,1.62-.9,1.08-1.35,2.64-1.35,4.69s.45,3.45,1.35,4.51,2.19,1.6,3.88,1.6c1.11,0,2.07-.24,2.89-.73.81-.49,1.44-1.18,1.9-2.09l3.49,1.07c-.71,1.58-1.8,2.81-3.25,3.68-1.45.87-3.07,1.3-4.85,1.3ZM67.7,24.96v-2.67h13.13v2.67h-13.13Z"/>
        <path class="cls-1" d="M84.86,32.84V15.14h3.18v5.11h.43v12.59h-3.61ZM97.79,32.84v-8.7c0-.69-.06-1.4-.18-2.12-.12-.73-.35-1.4-.68-2.02-.34-.62-.81-1.13-1.41-1.51-.61-.38-1.4-.57-2.38-.57-.64,0-1.24.1-1.81.3-.57.2-1.06.53-1.49.98-.43.45-.76,1.04-1,1.77-.24.73-.37,1.62-.37,2.67l-2.21-.8c0-1.61.31-3.02.94-4.25.62-1.23,1.52-2.19,2.69-2.88s2.58-1.03,4.24-1.03c1.27,0,2.34.2,3.2.59.86.39,1.56.91,2.1,1.55.54.64.95,1.34,1.23,2.09.28.75.48,1.49.58,2.21.1.72.15,1.35.15,1.9v9.83h-3.61Z"/>
        <path class="cls-1" d="M111.89,33.33c-1.71,0-3.19-.41-4.44-1.23-1.24-.82-2.2-1.94-2.88-3.35-.68-1.41-1.01-3.01-1.01-4.78s.34-3.37,1.02-4.78c.68-1.4,1.65-2.51,2.9-3.33,1.25-.81,2.74-1.22,4.47-1.22s3.2.41,4.39,1.22c1.19.81,2.08,1.93,2.69,3.33.61,1.41.91,3,.91,4.77s-.31,3.36-.92,4.77c-.61,1.41-1.52,2.53-2.71,3.35s-2.67,1.24-4.43,1.24ZM112.38,30.24c1.17,0,2.12-.27,2.86-.8.74-.54,1.28-1.27,1.62-2.21.34-.94.51-2.02.51-3.24s-.17-2.3-.52-3.24c-.35-.94-.88-1.67-1.6-2.2-.72-.52-1.64-.79-2.75-.79-1.18,0-2.15.28-2.91.84-.76.56-1.33,1.31-1.69,2.24-.37.94-.55,1.99-.55,3.15s.18,2.23.55,3.17c.37.95.93,1.7,1.67,2.25.74.56,1.68.84,2.82.84ZM117.37,32.84v-12.73h-.41v-10.86h3.58v23.6h-3.17Z"/>
        <path class="cls-1" d="M129.48,33.33c-1.36,0-2.5-.24-3.42-.73-.92-.49-1.62-1.13-2.09-1.93s-.71-1.69-.71-2.65c0-.9.16-1.68.49-2.36.33-.68.82-1.25,1.46-1.73.65-.48,1.44-.86,2.38-1.16.82-.23,1.74-.43,2.78-.61,1.03-.17,2.12-.34,3.26-.49,1.14-.15,2.27-.31,3.4-.46l-1.29.69c.02-1.39-.28-2.42-.91-3.09-.63-.67-1.71-1.01-3.24-1.01-.97,0-1.85.22-2.66.65-.81.43-1.37,1.14-1.69,2.14l-3.32-.98c.45-1.52,1.32-2.73,2.6-3.62,1.28-.9,2.98-1.34,5.1-1.34,1.65,0,3.08.27,4.3.81,1.22.54,2.11,1.4,2.68,2.56.3.58.48,1.19.54,1.84.07.64.1,1.34.1,2.08v10.9h-3.15v-4.05l.61.52c-.76,1.35-1.73,2.36-2.9,3.02-1.18.66-2.62.99-4.33.99ZM130.11,30.53c1.01,0,1.88-.17,2.61-.52.73-.34,1.31-.78,1.75-1.32.44-.54.73-1.09.87-1.67.19-.52.3-1.11.33-1.77.03-.66.04-1.18.04-1.57l1.16.41c-1.12.16-2.15.31-3.07.44s-1.75.26-2.49.39c-.74.13-1.41.28-1.98.45-.49.16-.92.36-1.3.59-.38.23-.68.51-.9.84s-.33.73-.33,1.2.12.88.36,1.27.6.7,1.09.93c.49.23,1.11.34,1.87.34Z"/>
      </g>
    </g>
  </g>
</svg>